name Walk4.mot
datacolumns 19
datarows 27
range 4.65000000 4.78000000
endheader

                time	   L_ground_force_vx	   L_ground_force_vy	   L_ground_force_vz	   L_ground_force_px	   L_ground_force_py	   L_ground_force_pz	   R_ground_force_vx	   R_ground_force_vy	   R_ground_force_vz	   R_ground_force_px	   R_ground_force_py	   R_ground_force_pz	   L_ground_torque_x	   L_ground_torque_y	   L_ground_torque_z	   R_ground_torque_x	   R_ground_torque_y	   R_ground_torque_z	
          4.65000000	          0.00000000	          0.00000000	          0.00000000	         -0.00000000	          0.00000000	         -0.00000000	         17.80755855	        150.99504965	          4.97803701	          0.39071919	          0.00000000	          0.14180735	          0.00000000	          0.00000000	          0.00000000	          0.00000000	         -3.92900006	          0.00000000	
          4.65500000	          0.00000000	          0.00000000	          0.00000000	         -0.00000000	          0.00000000	         -0.00000000	         11.65261256	        119.14869893	          4.88054503	          0.38429266	          0.00000000	          0.13427218	          0.00000000	          0.00000000	          0.00000000	          0.00000000	         -2.90496062	          0.00000000	
          4.66000000	          0.00000000	          0.00000000	          0.00000000	         -0.00000000	          0.00000000	         -0.00000000	          6.36427756	         91.72061076	          4.57764588	          0.37173511	          0.00000000	          0.12510386	          0.00000000	          0.00000000	          0.00000000	          0.00000000	         -1.99173222	          0.00000000	
          4.66500000	          0.00000000	          0.00000000	          0.00000000	         -0.00000000	          0.00000000	         -0.00000000	          2.09532252	         68.53048585	          4.11966353	          0.35190815	          0.00000000	          0.11418819	          0.00000000	          0.00000000	          0.00000000	          0.00000000	         -1.21914008	          0.00000000	
          4.67000000	         -0.00000000	          0.00000000	          0.00000000	         -0.00000000	          0.00000000	         -0.00000000	         -1.08150131	         49.25163214	          3.55374877	          0.32413283	          0.00000000	          0.10153908	          0.00000000	          0.00000000	          0.00000000	          0.00000000	         -0.60450973	          0.00000000	
          4.67500000	         -0.00000000	          0.00000000	          0.00000000	         -0.00000000	          0.00000000	         -0.00000000	         -3.18905646	         33.50684189	          2.93204019	          0.28849739	          0.00000000	          0.08737812	          0.00000000	          0.00000000	          0.00000000	          0.00000000	         -0.15011680	          0.00000000	
          4.68000000	         -0.00000000	         -0.00000000	          0.00000000	         -0.00000000	          0.00000000	         -0.00000000	         -4.34754949	         20.94074656	          2.30767826	          0.24626064	          0.00000000	          0.07221843	          0.00000000	          0.00000000	          0.00000000	          0.00000000	          0.15734585	          0.00000000	
          4.68500000	         -0.00000000	         -0.00000000	          0.00000000	         -0.00000000	          0.00000000	         -0.00000000	         -4.75585439	         11.25324922	          1.72547514	          0.20036542	          0.00000000	          0.05694082	          0.00000000	          0.00000000	          0.00000000	          0.00000000	          0.34263398	          0.00000000	
          4.69000000	         -0.00000000	         -0.00000000	          0.00000000	         -0.00000000	          0.00000000	         -0.00000000	         -4.64170121	          4.15125217	          1.21566253	          0.15510015	          0.00000000	          0.04264321	          0.00000000	          0.00000000	          0.00000000	          0.00000000	          0.43436482	          0.00000000	
          4.69500000	         -0.00000000	         -0.00000000	         -0.00000000	         -0.00000000	          0.00000000	         -0.00000000	         -4.20139455	         -0.73143482	          0.79258537	          0.11380587	          0.00000000	          0.03010186	          0.00000000	          0.00000000	          0.00000000	          0.00000000	          0.45883702	          0.00000000	
          4.70000000	         -0.00000000	         -0.00000000	         -0.00000000	         -0.00000000	          0.00000000	         -0.00000000	         -3.58675491	         -3.80475975	          0.45859026	          0.07832398	          0.00000000	          0.01967865	          0.00000000	          0.00000000	          0.00000000	          0.00000000	          0.43824211	          0.00000000	
          4.70500000	         -0.00000000	         -0.00000000	         -0.00000000	          0.00000000	          0.00000000	          0.00000000	         -2.90892946	         -5.47471300	          0.20813672	          0.04937565	          0.00000000	          0.01143810	          0.00000000	          0.00000000	          0.00000000	          0.00000000	          0.39037534	          0.00000000	
          4.71000000	         -0.00000000	         -0.00000000	         -0.00000000	          0.00000000	          0.00000000	          0.00000000	         -2.24419199	         -6.11263806	          0.03106462	          0.02690663	          0.00000000	          0.00524898	          0.00000000	          0.00000000	          0.00000000	          0.00000000	          0.32880534	          0.00000000	
          4.71500000	         -0.00000000	         -0.00000000	         -0.00000000	          0.00000000	          0.00000000	          0.00000000	         -1.64042028	         -6.03829129	         -0.08494512	          0.01036969	          0.00000000	          0.00086489	          0.00000000	         -0.00000000	          0.00000000	          0.00000000	          0.26331717	          0.00000000	
          4.72000000	         -0.00000000	         -0.00000000	         -0.00000000	          0.00000000	          0.00000000	          0.00000000	         -1.12349576	         -5.51305831	         -0.15262179	         -0.00105524	          0.00000000	         -0.00201495	          0.00000000	         -0.00000000	          0.00000000	          0.00000000	          0.20049566	          0.00000000	
          4.72500000	         -0.00000000	         -0.00000000	         -0.00000000	          0.00000000	          0.00000000	          0.00000000	         -0.70314716	         -4.74022033	         -0.18395099	         -0.00829837	          0.00000000	         -0.00370237	          0.00000000	         -0.00000000	          0.00000000	          0.00000000	          0.14435267	          0.00000000	
          4.73000000	         -0.00000000	         -0.00000000	         -0.00000000	          0.00000000	          0.00000000	          0.00000000	         -0.37797530	         -3.86972019	         -0.18949350	         -0.01228695	          0.00000000	         -0.00449167	          0.00000000	         -0.00000000	          0.00000000	          0.00000000	          0.09693270	          0.00000000	
          4.73500000	         -0.00000000	         -0.00000000	         -0.00000000	          0.00000000	          0.00000000	          0.00000000	         -0.13955561	         -3.00543723	         -0.17806116	         -0.01387300	          0.00000000	         -0.00464260	          0.00000000	         -0.00000000	          0.00000000	          0.00000000	          0.05885699	          0.00000000	
          4.74000000	          0.00000000	         -0.00000000	         -0.00000000	          0.00000000	          0.00000000	          0.00000000	          0.02437548	         -2.21349557	         -0.15664733	         -0.01379292	          0.00000000	         -0.00437221	          0.00000000	         -0.00000000	          0.00000000	          0.00000000	          0.02978490	          0.00000000	
          4.74500000	          0.00000000	         -0.00000000	         -0.00000000	          0.00000000	          0.00000000	          0.00000000	          0.12757351	         -1.53057799	         -0.13052615	         -0.01265071	          0.00000000	         -0.00385303	          0.00000000	         -0.00000000	          0.00000000	          0.00000000	          0.00878591	          0.00000000	
          4.75000000	          0.00000000	          0.00000000	         -0.00000000	          0.00000000	          0.00000000	          0.00000000	          0.18366288	         -0.97158596	         -0.10345211	         -0.01091771	          0.00000000	         -0.00321536	          0.00000000	         -0.00000000	          0.00000000	          0.00000000	         -0.00537520	          0.00000000	
          4.75500000	          0.00000000	          0.00000000	         -0.00000000	          0.00000000	          0.00000000	          0.00000000	          0.20510639	         -0.53627450	         -0.07790823	         -0.00894292	          0.00000000	         -0.00255214	          0.00000000	         -0.00000000	          0.00000000	          0.00000000	         -0.01403133	          0.00000000	
          4.76000000	          0.00000000	          0.00000000	         -0.00000000	          0.00000000	          0.00000000	          0.00000000	          0.20263627	         -0.21470486	         -0.05536584	         -0.00696924	          0.00000000	         -0.00192498	          0.00000000	         -0.00000000	          0.00000000	          0.00000000	         -0.01847263	          0.00000000	
          4.76500000	          0.00000000	          0.00000000	         -0.00000000	          0.00000000	          0.00000000	          0.00000000	          0.18502615	          0.00849207	         -0.03653108	         -0.00515238	          0.00000000	         -0.00137056	          0.00000000	         -0.00000000	          0.00000000	          0.00000000	         -0.01985979	          0.00000000	
          4.77000000	          0.00000000	          0.00000000	          0.00000000	          0.00000000	          0.00000000	          0.00000000	          0.15909979	          0.15095232	         -0.02156354	         -0.00357977	          0.00000000	         -0.00090662	          0.00000000	         -0.00000000	          0.00000000	          0.00000000	         -0.01917868	          0.00000000	
          4.77500000	          0.00000000	          0.00000000	          0.00000000	         -0.00000000	          0.00000000	          0.00000000	          0.12989084	          0.23037082	         -0.01025973	         -0.00228817	          0.00000000	         -0.00053741	          0.00000000	         -0.00000000	          0.00000000	          0.00000000	         -0.01722509	          0.00000000	
          4.78000000	          0.00000000	          0.00000000	          0.00000000	         -0.00000000	          0.00000000	         -0.00000000	          0.10088692	          0.26308082	         -0.00219940	         -0.00127893	          0.00000000	         -0.00025813	          0.00000000	         -0.00000000	          0.00000000	          0.00000000	         -0.01461000	          0.00000000	
